# xmcd
#
# Track frame offsets: 
#        150
#        10539
#        18437
#        27603
#        38163
#        47742
#        54247
#        63448
#        72163
#        81845
#        90524
#        97876
#        106161
#        119380
#        125481
#        136598
#        146306
#        155213
#        165940
#        172136
#
# Disc length: 2412 seconds
#
# Revision: 0
# Processed by: cddbd v1.5.2PL0 Copyright (c) Steve Scherf et al.
# Submitted via: ExactAudioCopy v0.99pb5
#
DISCID=fb096a14
DTITLE=Reno, Don and Red Smiley, Featuring Buck Ryan - Fiddle Breakdown
DYEAR=1997
DGENRE=
TTITLE0=Goodbye Liza Jane
TTITLE1=Chicks Waltz
TTITLE2=Natural Bridge Blues
TTITLE3=I Saw Your Face In The Moon
TTITLE4=Kansas City Railroad Blues
TTITLE5=Kingdom Coming
TTITLE6=Stomping With Reno
TTITLE7=Whispering
TTITLE8=Fiddling Around
TTITLE9=Red's Virginia Waltz
TTITLE10=Love Somebody
TTITLE11=Lee Highway Blues
TTITLE12=Mary's Melody
TTITLE13=Ryan's Stomp
TTITLE14=South Sea Sweetheart
TTITLE15=Indian Creek
TTITLE16=In The Pines
TTITLE17=Ryan's Polka
TTITLE18=Black Berry Blossom
TTITLE19=Hog Through Reel
EXTD=
EXTT0=
EXTT1=
EXTT2=
EXTT3=
EXTT4=
EXTT5=
EXTT6=
EXTT7=
EXTT8=
EXTT9=
EXTT10=
EXTT11=
EXTT12=
EXTT13=
EXTT14=
EXTT15=
EXTT16=
EXTT17=
EXTT18=
EXTT19=
PLAYORDER=
